<svg xmlns="http://www.w3.org/2000/svg" viewBox="0 0 220 140" role="img" aria-labelledby="title desc">
  <title id="title">Nuvem desenhada à mão</title>
  <desc id="desc">Nuvem azul-clara de lápis de cera.</desc>
  <g data-part="doodle" fill="none" stroke="var(--mf-mint, #8bcfd0)" stroke-linecap="round" stroke-linejoin="round">
    <path d="M45 105c-22-2-28-29-12-43 10-9 23-8 33-1 3-27 34-43 57-27 10 7 15 17 15 29 17-12 41-4 47 15 6 18-8 35-27 35H52" stroke-width="7" stroke-dasharray="3 4"/>
    <path d="M50 99c-14-2-19-18-10-28 8-9 20-8 29 0 4-27 34-39 53-20 6 6 9 14 9 23 13-12 35-5 39 11 4 13-7 25-21 25H52" stroke-width="3" opacity=".65"/>
  </g>
</svg>
